<?xml version="1.0" encoding="UTF-8"?>
<svg xmlns="http://www.w3.org/2000/svg" viewBox="0 0 512 512" width="512" height="512">



    <g transform="translate(96 88) rotate(-6 160 110)">
    <rect width="320" height="220" rx="24" fill="#d8cfbe"></rect>
    <g stroke="#c2b9a4" stroke-width="8" stroke-linecap="round" opacity="0.85">
      <line x1="44" y1="64" x2="252" y2="64"></line>
      <line x1="44" y1="110" x2="220" y2="110"></line>
      <line x1="44" y1="156" x2="240" y2="156"></line>
    </g>
  </g>
    <g transform="translate(96 130)">
    <rect width="320" height="220" rx="24" fill="#e9e1cf"></rect>
    <g stroke="#c2b9a4" stroke-width="8" stroke-linecap="round" opacity="0.85">
      <line x1="44" y1="64" x2="252" y2="64"></line>
      <line x1="44" y1="110" x2="220" y2="110"></line>
      <line x1="44" y1="156" x2="240" y2="156"></line>
    </g>
  </g>
    <g transform="translate(96 172) rotate(4 160 110)">
    <rect width="320" height="220" rx="24" fill="#fbf6ea" stroke="#3b342a" stroke-width="6"></rect>
    
    <circle cx="64" cy="64" r="22" fill="none" stroke="#9bbca5" stroke-width="8"></circle>
    <path d="M52 66 L61 78 L86 42" fill="none" stroke="#2f5e3c" stroke-width="8" stroke-linecap="round" stroke-linejoin="round"></path>
  
    <line x1="116" y1="64" x2="252" y2="64" stroke="#c2b9a4" stroke-width="8" stroke-linecap="round"></line>
    <circle cx="64" cy="118" r="20" fill="none" stroke="#9bbca5" stroke-width="8"></circle>
    <line x1="100" y1="118" x2="240" y2="118" stroke="#3b342a" stroke-width="8" stroke-linecap="round"></line>
    <circle cx="64" cy="172" r="20" fill="none" stroke="#9bbca5" stroke-width="8"></circle>
    <line x1="100" y1="172" x2="220" y2="172" stroke="#3b342a" stroke-width="8" stroke-linecap="round"></line>
  </g>
  
</svg>